# xmcd
#
# Track frame offsets: 
#        150
#        13230
#        22942
#        34225
#        46322
#        56430
#        65502
#        76245
#        85705
#        98670
#        114425
#        125680
#        136857
#        149510
#        162950
#        174842
#        186352
#        196662
#        211272
#        220957
#
# Disc length: 3170 seconds
#
# Revision: 1
# Processed by: cddbd v1.5.2PL0 Copyright (c) Steve Scherf et al.
# Submitted via: ExactAudioCopy v0.99pb4
#
DISCID=0e0c6014
DTITLE=Bobby Patterson - Soul Is My Music: The Best Of Bobby Patterson
DTITLE=Disc One
DYEAR=2003
DGENRE=R&B
TTITLE0=Then You'll Know (previously unissued)
TTITLE1=Rainin' In My Heart (previously unissued)
TTITLE2=I'm A Slave To You (previously unissued)
TTITLE3=Nobody But You (previously unissued)
TTITLE4=You Just Got To Understand
TTITLE5=Till You Give In
TTITLE6=If I Didn't Have You
TTITLE7=What's Your Problem Baby
TTITLE8=Long Ago
TTITLE9=Let Them Talk
TTITLE10=Soul Is Our Music
TTITLE11=I'm Leroy - I'll Take Her
TTITLE12=Sock Some Lovin' At Me
TTITLE13=Broadway Ain't Funky No More
TTITLE14=I Met My Match
TTITLE15=The Good Ol' Days
TTITLE16=Don't Be So Mean
TTITLE17=Sweet Taste Of Lovin'
TTITLE18=Busy, Busy Bee
TTITLE19=Trial Of Mary Maguire (first version, previously unissued)
EXTD=
EXTT0=
EXTT1=
EXTT2=
EXTT3=
EXTT4=
EXTT5=
EXTT6=
EXTT7=
EXTT8=
EXTT9=
EXTT10=
EXTT11=
EXTT12=
EXTT13=
EXTT14=
EXTT15=
EXTT16=
EXTT17=
EXTT18=
EXTT19=
PLAYORDER=
